<svg viewBox="-51.2 -51.2 614.40 614.40" xmlns="http://www.w3.org/2000/svg" fill="" stroke="" stroke-width="0.00512" transform="rotate(0)"><g id="SVGRepo_bgCarrier" stroke-width="0"><path transform="translate(-51.2, -51.2), scale(19.2)" d="M16,27.071381885996637C18.89361441930156,27.580732220941293,21.95012569770708,29.12654873076764,24.568254370871703,27.793190406065918C27.25888944344437,26.422906084473443,29.005891417680203,23.320024889233693,29.271874014459513,20.312293273219588C29.52019834767501,17.504241328912926,26.86238193890393,15.43276749393266,25.895494321440435,12.784758991003125C24.98240409428578,10.28408503285445,25.48815901214299,7.3309990702854435,23.784863380511027,5.285054789726523C21.831340813020127,2.938545910307062,19.038232038932005,1.2010978063514508,16.000000000000004,0.8986074420459129C12.803970417986616,0.5804065475104382,9.444441135513243,1.5293790042102575,7.001072252611085,3.61403854486751C4.644719162997733,5.6244570223202945,3.732530150879349,8.787003165062707,3.1816826697797715,11.835076226847843C2.6899630868492967,14.55596951602249,2.8933195635999915,17.373004631331035,4.061670199016019,19.878998492463964C5.139103240207113,22.189983315992762,7.190768258241961,23.802943475139916,9.374833914080051,25.118758820778982C11.3963717769176,26.336657437792557,13.67567302351511,26.66224073847663,16,27.071381885996637" fill="#c6ebf7" strokewidth="0"></path></g><g id="SVGRepo_tracerCarrier" stroke-linecap="round" stroke-linejoin="round"></g><g id="SVGRepo_iconCarrier"><path fill="oklch(0.6723 0.1606 244.9955)" d="M258.8 19.67c-64.3-.19-138.9 17.46-171.47 52.48C3.05 162.8-13.47 361.6 79.41 443.4 177 529.4 397.5 496.9 465.4 386c43-70.3-8.8-190.8-78.8-234.4-71.3-44.5-202.8-36.3-250 33.2-35.7 52.7-10.6 157.3 46.6 185.3 56.8 27.8 159.6-14.8 173.7-76.5 7.2-31.6-32.1-64.9-63.3-74-29.7-8.6-82.5-3.2-88.7 27.1-5.7 27.6 39.2 55.4 64.7 54.6 18.2-.6-47.6-29.8-36.4-45.7 17.8-25.3 86.4-1 87.7 29.8 1.9 43.6-81.1 72.6-120 52.7-40.5-20.8-55.4-96.9-28.4-133.5 34.8-47.2 125.6-47.2 175.1-15.9 49.6 31.4 90.4 114.8 60.7 165.4-49.6 84.5-216.1 110-290.3 46-71.77-61.9-61.6-214.7 2.8-284.2C182 49.64 361.7 63.14 390.5 92.21c17.8 26.79 47.6 58.69 90.7 38.19-26.9-7.5-43.3-20.9-50.5-38.65 16.9 6.49 48-.54 64.7-6.46-13.3-16.22-54.6-65.61-92.9-42.93 0 0-66-22.45-143.7-22.69zM423.3 51.8c9.5 8.19 25.9 20.75 40.9 29.42 0 0-34.9.97-43.2-11.39-3.4-5.03-7-9.46 2.3-18.03z"></path></g></svg>